<?xml version="1.0" encoding="UTF-8"?> <svg xmlns="http://www.w3.org/2000/svg" viewBox="0 0 285.19 135.34"><defs><style>.cls-1{fill:#ed1c24;}</style></defs><g id="Layer_2" data-name="Layer 2"><g id="Layer_1-2" data-name="Layer 1"><g id="_7iSqCw.tif" data-name="7iSqCw.tif"><path class="cls-1" d="M139.91,0a2.81,2.81,0,0,0,1.52,1.29,8.2,8.2,0,0,1-3.9,15.41,8,8,0,0,1-8-6.2,8.43,8.43,0,0,1,4.05-9.16C134.21,1,135,.8,135.31,0Z"></path><path class="cls-1" d="M61.74,28.85c-.35,9.2-4.14,17-10.27,23.64A73.38,73.38,0,0,1,25.83,70.67a18.58,18.58,0,0,1-7.59,1.55c-4.37-.08-7.17-2.67-7.48-7C10.32,58.91,16,50.6,22,48.79a6.54,6.54,0,0,1,4.28.12c3.32,1.26,4.28,4.22,2,6.93-1.7,2-3.76,3.8-5.63,5.71A17.19,17.19,0,0,0,20.59,64c-.57.87-1.3,1.91-.44,2.94s2,.56,3,.2a31.77,31.77,0,0,0,6.73-3.41c7.79-5.23,14.56-11.44,18.89-19.92,1.55-3,2.5-6.24,1.66-9.71-1-4-4.19-5.85-8.22-4.71C36.67,30.91,31.84,33.85,27.12,37S17.93,43.32,12.4,44.8C7.28,46.16,2.47,44.78.76,41c-1.44-3.22-.65-6.41.81-9.49C4.48,25.37,9.36,21.2,14.94,17.67c6-3.82,12.34-7.1,19.51-8.27,9.25-1.5,17.61-.15,23.69,7.84A17.48,17.48,0,0,1,61.74,28.85Z"></path><path class="cls-1" d="M121.34,49.6c0,4.67,0,9.33,0,14a3.15,3.15,0,0,1-1.07,2.61c-7.15,6.6-20.79,9-29.53,5-10.22-4.6-13.52-18-6.36-26.43,3.75-4.42,9-5.78,14.61-6.08,2.45-.13,4.91-.07,7.36,0,1.34,0,1.9-.44,2-1.85.21-5.08-1.81-7.44-6.9-7.62a24.92,24.92,0,0,0-11.92,2.93c-1.51.74-2.2.53-2.76-1a36.68,36.68,0,0,0-2-4.38c-.66-1.22-.12-1.89.89-2.38,7.1-3.47,14.49-5.26,22.45-4,7.62,1.24,13.12,7.75,13.24,15.87C121.39,40.73,121.34,45.17,121.34,49.6Zm-13.06,5.46V53c0-6.23-.76-6.81-7-5.52-3.43.71-6,2.52-6.83,6S94,60.27,97,62.64s6.46,1.79,9.81.65A2.11,2.11,0,0,0,108.3,61C108.23,59,108.28,57.05,108.28,55.06Z"></path><path class="cls-1" d="M242.06,48.07c-3.91,0-7.82.06-11.73,0-1.62,0-2.12.57-2.09,2.15A25.89,25.89,0,0,0,229.1,57a9.78,9.78,0,0,0,10.82,7.22A26.73,26.73,0,0,0,251,60.76c1.24-.76,2-.82,2.57.76a24.93,24.93,0,0,0,2.09,4.32,1.35,1.35,0,0,1-.42,2.12c-8.24,5.49-21.06,7.51-29.63,2.29a21,21,0,0,1-9.24-12.68c-2.87-10-2-19.67,3.43-28.69,7.05-11.71,26.1-10.77,31.85-1.25,3.58,5.93,4.16,12.5,4.32,19.17,0,1.42-1.07,1.26-2,1.26C250,48.08,246.05,48.07,242.06,48.07Zm-6.46-7.86v0h1.84c5.58,0,6.46-1.47,4-6.64a8.86,8.86,0,0,0-.54-1,5.74,5.74,0,0,0-7.66-1.92c-2.31,1.2-4.7,5.49-4.51,8,.09,1.2.83,1.53,1.87,1.53Z"></path><path class="cls-1" d="M188.62,34.43c0-7.72.06-15.44,0-23.15,0-1.84.6-2.6,2.38-2.84,2.87-.39,5.73-.92,8.59-1.44,1.62-.28,2.22.3,2.17,1.95-.08,3.2,0,6.41,0,9.62,0,1.76.66,2.54,2.44,2.45,1.38-.07,2.76,0,4.14,0s1.93.56,1.87,1.91c-.09,2.21.61,4.84-.36,6.52-1.09,1.89-3.92.55-6,.75-1.42.14-2.1.66-2.09,2.1,0,8.48-.09,17,.05,25.44.07,4.26,2,6,6.47,6.47,1.53.15,2,.71,1.91,2.12,0,.53,0,1.07,0,1.61,0,4.58,0,4.84-4.55,4.81A21.24,21.24,0,0,1,196,70.82c-5.8-2.93-7.32-8-7.36-13.93C188.58,49.4,188.62,41.91,188.62,34.43Z"></path><path class="cls-1" d="M276.89,33.68q0,11.59,0,23.17c0,5,1.34,6.74,6.22,7.3,1.83.21,2.19.94,2.05,2.46-.06.68,0,1.38,0,2.06,0,3.88,0,4-3.88,4.16a20.75,20.75,0,0,1-9.85-1.77c-4.61-2.14-6.84-6.1-7.19-11s-.17-9.48-.18-14.22c0-11.54,0-23.09,0-34.64,0-1.63.3-2.54,2.11-2.79,2.81-.37,5.58-1,8.37-1.48,1.79-.34,2.46.28,2.44,2.16C276.85,17.32,276.9,25.5,276.89,33.68Z"></path><path class="cls-1" d="M154.31,50.9c0-6.34,0-12.69,0-19a4.37,4.37,0,0,1,1.62-3.57,29.87,29.87,0,0,1,25.18-7.83c.23,0,.46.05.68.09,3.23.6,3.42.91,2.14,3.87-.69,1.61-1.14,3.48-2.28,4.69s-3.17-.05-4.82.08a22.12,22.12,0,0,0-5,.87c-4.08,1.29-4.47,1.92-4.47,6.19,0,11.16,0,22.32,0,33.48,0,1.91-.57,2.59-2.48,2.5-2.75-.12-5.52-.1-8.27,0-1.74.07-2.43-.42-2.39-2.31C154.38,63.59,154.31,57.24,154.31,50.9Z"></path><path class="cls-1" d="M143.91,46.82c0,7.64-.06,15.29,0,22.93,0,1.94-.62,2.57-2.5,2.49-2.83-.11-5.67-.06-8.51,0-1.36,0-1.89-.48-1.89-1.88q0-22.71,0-45.41c0-1.39.45-2.16,1.88-2.35,2.88-.39,5.77-.77,8.62-1.3,1.91-.36,2.41.33,2.39,2.15C143.87,31.22,143.91,39,143.91,46.82Z"></path><path class="cls-1" d="M80.67,112.83V103.2c0-1.11.06-2.23,1.35-2.62s1.8.49,2.28,1.41c.61,1.15,1.1.78,1.89.07a9.05,9.05,0,0,1,12.24.46c1.07,1.12,1.61,1.07,2.68,0a10.31,10.31,0,0,1,11.72-1.35,6.24,6.24,0,0,1,3.07,5.57c.09,5.5,0,11,0,16.51,0,1.29-.48,2.06-1.86,2s-2.17-.59-2.17-2.06c0-4.51,0-9,0-13.53,0-3.44-1.23-5.44-3.58-5.88a6.24,6.24,0,0,0-7.09,4.1,14.83,14.83,0,0,0-1,5.37c.06,3.37,0,6.73,0,10.09,0,1.4-.68,2-2,1.94s-2-.55-2-2c0-4.12,0-8.25,0-12.38a13.87,13.87,0,0,0-.47-3.85,5,5,0,0,0-8.12-2.27,8.92,8.92,0,0,0-3.08,6.9c0,3.13,0,6.26,0,9.4,0,.61,0,1.22,0,1.83a2.06,2.06,0,0,1-2.11,2.24c-1.55,0-1.89-1-1.89-2.3Q80.66,117.87,80.67,112.83Z"></path><path class="cls-1" d="M188.35,114.16c-2.22,0-4.45,0-6.67,0-1.56,0-2.19.41-1.83,2.18a7.23,7.23,0,0,0,11.92,4.23,13.55,13.55,0,0,0,1.16-1.11c.92-1,2.07-1.71,3.19-.69s.35,2.25-.39,3.28c-4.32,6-15.37,4.91-18.81-2.05a15.22,15.22,0,0,1,.22-14.54c2.38-4.43,6.92-6.22,12.64-5.25,4,.67,7.11,4.16,7.89,8.81.12.75.19,1.51.35,2.26.38,1.9-.55,2.79-2.31,2.85-2.45.09-4.91,0-7.36,0Zm-1.58-3.54c1.84,0,3.67,0,5.5,0,1.28,0,1.59-.63,1.39-1.75a7,7,0,0,0-13.48-.08c-.22,1.26.2,1.87,1.55,1.83C183.41,110.58,185.09,110.62,186.77,110.62Z"></path><path class="cls-1" d="M144.62,113c-.07,4.52-1.1,8.63-5.32,11.19-6.55,4-16.88,1.36-18-8.19-.43-3.82-.59-7.68,1.73-11,3.25-4.74,7.47-5.7,13.39-4.48,4.63.95,7.62,5,8,10C144.55,111.25,144.58,112.09,144.62,113Zm-19.29-.15c0,.61,0,1.22,0,1.83.35,4,2.79,7.06,5.9,7.56,3.8.6,7-1,8.32-4.49a13.06,13.06,0,0,0-.11-9.83c-1.29-3.12-3.6-4.44-7.09-4.28-3.19.14-5.2,1.77-6.37,5A10,10,0,0,0,125.33,112.81Z"></path><path class="cls-1" d="M149.51,112.8c0-3,0-6.11,0-9.16,0-1.27,0-2.57,1.49-3s2,.51,2.49,1.7c.57,1.38,1.27.53,1.9,0,2.76-2.57,6.11-2.7,9.47-1.9a6.79,6.79,0,0,1,5.45,6.82c.2,5.34.1,10.69.14,16,0,1.48-.85,2-2.19,2s-1.81-.83-1.81-2.09c0-3.74,0-7.49,0-11.23a21,21,0,0,0-.1-2.51c-.45-3.55-1.55-5.12-3.83-5.57a6.71,6.71,0,0,0-7.48,3.6,14.22,14.22,0,0,0-1.48,6.86c-.09,2.74,0,5.49,0,8.24,0,1.31-.17,2.59-1.83,2.63s-2.22-1-2.21-2.56c0-3.28,0-6.56,0-9.85Z"></path><path class="cls-1" d="M205.06,132.93c.84-2,1.61-4.13,2.69-6.13a5.25,5.25,0,0,0,0-5c-2.51-5.89-4.88-11.84-7.38-17.74-.57-1.36-.85-2.6.74-3.26s2.48.6,3,1.77c2,4.62,3.83,9.3,5.73,14,.27.67.27,1.65,1.33,1.59s.81-1,1.06-1.57c2-4.63,3.94-9.27,6-13.89.52-1.17,1-2.6,2.79-2a1.74,1.74,0,0,1,1.24,2.52q-6.7,15.42-13.43,30.84a2,2,0,0,1-2.67,1.19C205.2,134.87,205.08,134,205.06,132.93Z"></path></g></g></g></svg> 