<svg id="visual" viewBox="0 0 960 540" width="960" height="540" xmlns="http://www.w3.org/2000/svg" xmlns:xlink="http://www.w3.org/1999/xlink" version="1.1"><g stroke-width="1" stroke-linejoin="bevel"><path d="M506.3 264L552.3 210L452.7 152Z" fill="#ceccc7" stroke="#ceccc7"></path><path d="M552.3 210L518.3 102L452.7 152Z" fill="#e6e5e3" stroke="#e6e5e3"></path><path d="M452.7 152L429.7 295L506.3 264Z" fill="#dad8d4" stroke="#dad8d4"></path><path d="M506.3 264L611 213L552.3 210Z" fill="#e6e5e3" stroke="#e6e5e3"></path><path d="M552.3 210L621 105L518.3 102Z" fill="#888277" stroke="#888277"></path><path d="M518.3 102L455.7 62L452.7 152Z" fill="#c2bfb9" stroke="#c2bfb9"></path><path d="M452.7 152L346 291L429.7 295Z" fill="#f3f2f1" stroke="#f3f2f1"></path><path d="M455.7 62L355 119L452.7 152Z" fill="#9f9a91" stroke="#9f9a91"></path><path d="M611 213L621 105L552.3 210Z" fill="#aaa69e" stroke="#aaa69e"></path><path d="M518.3 102L565.3 0L455.7 62Z" fill="#9f9a91" stroke="#9f9a91"></path><path d="M301 214L346 291L452.7 152Z" fill="#ffffff" stroke="#ffffff"></path><path d="M672 351L657 235L611 213Z" fill="#ceccc7" stroke="#ceccc7"></path><path d="M611 213L657 235L621 105Z" fill="#e6e5e3" stroke="#e6e5e3"></path><path d="M551.3 384L611 213L506.3 264Z" fill="#9f9a91" stroke="#9f9a91"></path><path d="M346 291L403.7 369L429.7 295Z" fill="#e6e5e3" stroke="#e6e5e3"></path><path d="M429.7 295L551.3 384L506.3 264Z" fill="#938e84" stroke="#938e84"></path><path d="M355 119L301 214L452.7 152Z" fill="#f3f2f1" stroke="#f3f2f1"></path><path d="M454.7 420L551.3 384L429.7 295Z" fill="#b6b2ab" stroke="#b6b2ab"></path><path d="M621 105L565.3 0L518.3 102Z" fill="#e6e5e3" stroke="#e6e5e3"></path><path d="M403.7 369L454.7 420L429.7 295Z" fill="#9f9a91" stroke="#9f9a91"></path><path d="M346 291L321 344L403.7 369Z" fill="#dad8d4" stroke="#dad8d4"></path><path d="M403.7 369L285 445L454.7 420Z" fill="#b6b2ab" stroke="#b6b2ab"></path><path d="M239.3 248L321 344L346 291Z" fill="#e6e5e3" stroke="#e6e5e3"></path><path d="M565.3 0L394.7 0L455.7 62Z" fill="#f3f2f1" stroke="#f3f2f1"></path><path d="M455.7 62L394.7 0L355 119Z" fill="#e6e5e3" stroke="#e6e5e3"></path><path d="M215.3 141L239.3 248L301 214Z" fill="#dad8d4" stroke="#dad8d4"></path><path d="M454.7 420L541.3 426L551.3 384Z" fill="#9f9a91" stroke="#9f9a91"></path><path d="M551.3 384L672 351L611 213Z" fill="#9f9a91" stroke="#9f9a91"></path><path d="M627 437L672 351L551.3 384Z" fill="#aaa69e" stroke="#aaa69e"></path><path d="M672 351L718.7 286L657 235Z" fill="#b6b2ab" stroke="#b6b2ab"></path><path d="M657 235L767.7 217L621 105Z" fill="#e6e5e3" stroke="#e6e5e3"></path><path d="M621 105L661 0L565.3 0Z" fill="#f3f2f1" stroke="#f3f2f1"></path><path d="M215.3 141L301 214L355 119Z" fill="#9f9a91" stroke="#9f9a91"></path><path d="M301 214L239.3 248L346 291Z" fill="#c2bfb9" stroke="#c2bfb9"></path><path d="M742.7 57L661 0L621 105Z" fill="#f3f2f1" stroke="#f3f2f1"></path><path d="M672 351L709.7 394L718.7 286Z" fill="#938e84" stroke="#938e84"></path><path d="M541.3 426L627 437L551.3 384Z" fill="#e6e5e3" stroke="#e6e5e3"></path><path d="M619 540L627 437L541.3 426Z" fill="#aaa69e" stroke="#aaa69e"></path><path d="M290 0L246.3 70L355 119Z" fill="#c2bfb9" stroke="#c2bfb9"></path><path d="M837.3 288L767.7 217L718.7 286Z" fill="#f3f2f1" stroke="#f3f2f1"></path><path d="M718.7 286L767.7 217L657 235Z" fill="#e6e5e3" stroke="#e6e5e3"></path><path d="M246.3 70L215.3 141L355 119Z" fill="#b6b2ab" stroke="#b6b2ab"></path><path d="M394.7 0L290 0L355 119Z" fill="#f3f2f1" stroke="#f3f2f1"></path><path d="M627 437L709.7 394L672 351Z" fill="#f3f2f1" stroke="#f3f2f1"></path><path d="M767.7 217L742.7 57L621 105Z" fill="#dad8d4" stroke="#dad8d4"></path><path d="M321 344L285 445L403.7 369Z" fill="#f3f2f1" stroke="#f3f2f1"></path><path d="M454.7 420L510.3 540L541.3 426Z" fill="#9f9a91" stroke="#9f9a91"></path><path d="M187.3 364L285 445L321 344Z" fill="#888277" stroke="#888277"></path><path d="M290 0L246.3 0L246.3 70Z" fill="#c2bfb9" stroke="#c2bfb9"></path><path d="M101.7 67L108.7 177L215.3 141Z" fill="#dad8d4" stroke="#dad8d4"></path><path d="M845.3 0L742.7 0L742.7 57Z" fill="#888277" stroke="#888277"></path><path d="M742.7 57L742.7 0L661 0Z" fill="#9f9a91" stroke="#9f9a91"></path><path d="M837.3 288L824.3 172L767.7 217Z" fill="#dad8d4" stroke="#dad8d4"></path><path d="M767.7 217L824.3 172L742.7 57Z" fill="#aaa69e" stroke="#aaa69e"></path><path d="M443.7 540L510.3 540L454.7 420Z" fill="#9f9a91" stroke="#9f9a91"></path><path d="M627 437L755.7 425L709.7 394Z" fill="#e6e5e3" stroke="#e6e5e3"></path><path d="M345 540L443.7 540L454.7 420Z" fill="#938e84" stroke="#938e84"></path><path d="M118.7 298L187.3 364L239.3 248Z" fill="#ceccc7" stroke="#ceccc7"></path><path d="M239.3 248L187.3 364L321 344Z" fill="#dad8d4" stroke="#dad8d4"></path><path d="M739.7 540L755.7 425L627 437Z" fill="#dad8d4" stroke="#dad8d4"></path><path d="M709.7 394L755.7 425L718.7 286Z" fill="#9f9a91" stroke="#9f9a91"></path><path d="M755.7 425L837.3 288L718.7 286Z" fill="#e6e5e3" stroke="#e6e5e3"></path><path d="M510.3 540L619 540L541.3 426Z" fill="#938e84" stroke="#938e84"></path><path d="M239.3 540L345 540L285 445Z" fill="#e6e5e3" stroke="#e6e5e3"></path><path d="M285 445L345 540L454.7 420Z" fill="#9f9a91" stroke="#9f9a91"></path><path d="M101.7 67L215.3 141L246.3 70Z" fill="#b6b2ab" stroke="#b6b2ab"></path><path d="M215.3 141L108.7 177L239.3 248Z" fill="#c2bfb9" stroke="#c2bfb9"></path><path d="M108.7 177L118.7 298L239.3 248Z" fill="#dad8d4" stroke="#dad8d4"></path><path d="M187.3 364L205.3 473L285 445Z" fill="#9f9a91" stroke="#9f9a91"></path><path d="M960 198L869.3 128L824.3 172Z" fill="#aaa69e" stroke="#aaa69e"></path><path d="M824.3 172L869.3 128L742.7 57Z" fill="#9f9a91" stroke="#9f9a91"></path><path d="M91.7 453L205.3 473L187.3 364Z" fill="#ceccc7" stroke="#ceccc7"></path><path d="M869.3 128L845.3 0L742.7 57Z" fill="#888277" stroke="#888277"></path><path d="M246.3 0L101.7 67L246.3 70Z" fill="#f3f2f1" stroke="#f3f2f1"></path><path d="M619 540L739.7 540L627 437Z" fill="#c2bfb9" stroke="#c2bfb9"></path><path d="M755.7 425L867.3 398L837.3 288Z" fill="#f3f2f1" stroke="#f3f2f1"></path><path d="M205.3 473L239.3 540L285 445Z" fill="#938e84" stroke="#938e84"></path><path d="M842.3 442L867.3 398L755.7 425Z" fill="#aaa69e" stroke="#aaa69e"></path><path d="M837.3 288L960 198L824.3 172Z" fill="#938e84" stroke="#938e84"></path><path d="M739.7 540L842.3 442L755.7 425Z" fill="#e6e5e3" stroke="#e6e5e3"></path><path d="M0 349L91.7 390L118.7 298Z" fill="#ceccc7" stroke="#ceccc7"></path><path d="M118.7 298L91.7 390L187.3 364Z" fill="#f3f2f1" stroke="#f3f2f1"></path><path d="M205.3 473L116.7 540L239.3 540Z" fill="#f3f2f1" stroke="#f3f2f1"></path><path d="M0 291L118.7 298L108.7 177Z" fill="#b6b2ab" stroke="#b6b2ab"></path><path d="M246.3 0L92.7 0L101.7 67Z" fill="#f3f2f1" stroke="#f3f2f1"></path><path d="M0 90L0 182L108.7 177Z" fill="#e6e5e3" stroke="#e6e5e3"></path><path d="M91.7 390L91.7 453L187.3 364Z" fill="#e6e5e3" stroke="#e6e5e3"></path><path d="M960 288L960 198L837.3 288Z" fill="#938e84" stroke="#938e84"></path><path d="M869.3 128L960 52L845.3 0Z" fill="#f3f2f1" stroke="#f3f2f1"></path><path d="M960 368L960 288L837.3 288Z" fill="#e6e5e3" stroke="#e6e5e3"></path><path d="M960 368L837.3 288L867.3 398Z" fill="#f3f2f1" stroke="#f3f2f1"></path><path d="M0 90L108.7 177L101.7 67Z" fill="#e6e5e3" stroke="#e6e5e3"></path><path d="M91.7 390L0 417L91.7 453Z" fill="#c2bfb9" stroke="#c2bfb9"></path><path d="M960 198L960 52L869.3 128Z" fill="#9f9a91" stroke="#9f9a91"></path><path d="M0 182L0 291L108.7 177Z" fill="#b6b2ab" stroke="#b6b2ab"></path><path d="M960 439L867.3 398L842.3 442Z" fill="#9f9a91" stroke="#9f9a91"></path><path d="M960 439L960 368L867.3 398Z" fill="#888277" stroke="#888277"></path><path d="M0 0L0 90L101.7 67Z" fill="#ffffff" stroke="#ffffff"></path><path d="M0 540L116.7 540L91.7 453Z" fill="#9f9a91" stroke="#9f9a91"></path><path d="M91.7 453L116.7 540L205.3 473Z" fill="#b6b2ab" stroke="#b6b2ab"></path><path d="M739.7 540L865.3 540L842.3 442Z" fill="#888277" stroke="#888277"></path><path d="M0 291L0 349L118.7 298Z" fill="#ceccc7" stroke="#ceccc7"></path><path d="M960 52L960 0L845.3 0Z" fill="#c2bfb9" stroke="#c2bfb9"></path><path d="M865.3 540L960 439L842.3 442Z" fill="#b6b2ab" stroke="#b6b2ab"></path><path d="M92.7 0L0 0L101.7 67Z" fill="#938e84" stroke="#938e84"></path><path d="M0 349L0 417L91.7 390Z" fill="#938e84" stroke="#938e84"></path><path d="M865.3 540L960 540L960 439Z" fill="#888277" stroke="#888277"></path><path d="M0 417L0 540L91.7 453Z" fill="#c2bfb9" stroke="#c2bfb9"></path></g></svg>