<svg id="visual" viewBox="0 0 960 540" width="960" height="540" xmlns="http://www.w3.org/2000/svg" xmlns:xlink="http://www.w3.org/1999/xlink" version="1.1"><g stroke-width="1" stroke-linejoin="bevel"><path d="M495.3 287L427.7 336L524.3 371Z" fill="#f9f1f1" stroke="#f9f1f1"></path><path d="M495.3 287L412.7 238L427.7 336Z" fill="#f9f1f1" stroke="#f9f1f1"></path><path d="M424.7 487L522.3 459L524.3 371Z" fill="#fcf8f8" stroke="#fcf8f8"></path><path d="M338 271L334 359L427.7 336Z" fill="#f9f1f1" stroke="#f9f1f1"></path><path d="M427.7 336L424.7 487L524.3 371Z" fill="#fcf8f8" stroke="#fcf8f8"></path><path d="M412.7 238L338 271L427.7 336Z" fill="#f2e3e3" stroke="#f2e3e3"></path><path d="M334 359L424.7 487L427.7 336Z" fill="#e1c1c1" stroke="#e1c1c1"></path><path d="M677 393L621 251L524.3 371Z" fill="#f6eaea" stroke="#f6eaea"></path><path d="M524.3 371L621 251L495.3 287Z" fill="#f6eaea" stroke="#f6eaea"></path><path d="M495.3 287L519.3 154L412.7 238Z" fill="#f2e3e3" stroke="#f2e3e3"></path><path d="M551.3 540L617 453L522.3 459Z" fill="#fcf8f8" stroke="#fcf8f8"></path><path d="M522.3 459L617 453L524.3 371Z" fill="#f9f1f1" stroke="#f9f1f1"></path><path d="M621 251L519.3 154L495.3 287Z" fill="#efdcdc" stroke="#efdcdc"></path><path d="M412.7 238L386.7 153L338 271Z" fill="#ecd5d5" stroke="#ecd5d5"></path><path d="M617 453L677 393L524.3 371Z" fill="#debaba" stroke="#debaba"></path><path d="M304 540L445.7 540L424.7 487Z" fill="#f9f1f1" stroke="#f9f1f1"></path><path d="M424.7 487L445.7 540L522.3 459Z" fill="#f9f1f1" stroke="#f9f1f1"></path><path d="M519.3 154L386.7 153L412.7 238Z" fill="#e8cece" stroke="#e8cece"></path><path d="M445.7 540L551.3 540L522.3 459Z" fill="#f2e3e3" stroke="#f2e3e3"></path><path d="M776.7 440L724.7 362L677 393Z" fill="#e8cece" stroke="#e8cece"></path><path d="M725.7 160L638 191L782.7 248Z" fill="#f6eaea" stroke="#f6eaea"></path><path d="M621 251L638 191L519.3 154Z" fill="#efdcdc" stroke="#efdcdc"></path><path d="M334 359L315 481L424.7 487Z" fill="#fcf8f8" stroke="#fcf8f8"></path><path d="M244.3 462L315 481L334 359Z" fill="#ffffff" stroke="#ffffff"></path><path d="M225.3 297L237.3 344L338 271Z" fill="#f2e3e3" stroke="#f2e3e3"></path><path d="M338 271L237.3 344L334 359Z" fill="#fcf8f8" stroke="#fcf8f8"></path><path d="M776.7 440L677 393L617 453Z" fill="#ffffff" stroke="#ffffff"></path><path d="M677 393L724.7 362L621 251Z" fill="#e5c8c8" stroke="#e5c8c8"></path><path d="M551.3 540L627 540L617 453Z" fill="#e5c8c8" stroke="#e5c8c8"></path><path d="M638 191L546.3 97L519.3 154Z" fill="#e1c1c1" stroke="#e1c1c1"></path><path d="M519.3 154L436.7 63L386.7 153Z" fill="#debaba" stroke="#debaba"></path><path d="M311 105L282 184L386.7 153Z" fill="#f9f1f1" stroke="#f9f1f1"></path><path d="M386.7 153L282 184L338 271Z" fill="#f9f1f1" stroke="#f9f1f1"></path><path d="M282 184L225.3 297L338 271Z" fill="#e8cece" stroke="#e8cece"></path><path d="M185.3 540L244.3 462L94.7 414Z" fill="#debaba" stroke="#debaba"></path><path d="M237.3 344L244.3 462L334 359Z" fill="#e5c8c8" stroke="#e5c8c8"></path><path d="M315 481L304 540L424.7 487Z" fill="#e8cece" stroke="#e8cece"></path><path d="M244.3 462L304 540L315 481Z" fill="#f6eaea" stroke="#f6eaea"></path><path d="M725.7 160L650 127L638 191Z" fill="#efdcdc" stroke="#efdcdc"></path><path d="M638 191L650 127L546.3 97Z" fill="#f6eaea" stroke="#f6eaea"></path><path d="M461.7 0L436.7 63L546.3 97Z" fill="#e5c8c8" stroke="#e5c8c8"></path><path d="M546.3 97L436.7 63L519.3 154Z" fill="#efdcdc" stroke="#efdcdc"></path><path d="M436.7 63L311 105L386.7 153Z" fill="#f6eaea" stroke="#f6eaea"></path><path d="M282 184L175.3 207L225.3 297Z" fill="#f2e3e3" stroke="#f2e3e3"></path><path d="M782.7 248L638 191L621 251Z" fill="#f2e3e3" stroke="#f2e3e3"></path><path d="M762.7 540L776.7 440L617 453Z" fill="#e8cece" stroke="#e8cece"></path><path d="M724.7 362L782.7 248L621 251Z" fill="#fcf8f8" stroke="#fcf8f8"></path><path d="M836.3 342L782.7 248L724.7 362Z" fill="#e5c8c8" stroke="#e5c8c8"></path><path d="M248.3 0L247.3 105L311 105Z" fill="#efdcdc" stroke="#efdcdc"></path><path d="M311 105L247.3 105L282 184Z" fill="#f6eaea" stroke="#f6eaea"></path><path d="M247.3 105L175.3 207L282 184Z" fill="#ffffff" stroke="#ffffff"></path><path d="M94.7 414L244.3 462L237.3 344Z" fill="#ecd5d5" stroke="#ecd5d5"></path><path d="M556.3 0L546.3 97L624 0Z" fill="#ecd5d5" stroke="#ecd5d5"></path><path d="M556.3 0L461.7 0L546.3 97Z" fill="#e5c8c8" stroke="#e5c8c8"></path><path d="M436.7 63L352 0L311 105Z" fill="#fcf8f8" stroke="#fcf8f8"></path><path d="M855.3 211L739.7 115L725.7 160Z" fill="#f9f1f1" stroke="#f9f1f1"></path><path d="M725.7 160L739.7 115L650 127Z" fill="#debaba" stroke="#debaba"></path><path d="M627 540L762.7 540L617 453Z" fill="#ecd5d5" stroke="#ecd5d5"></path><path d="M624 0L546.3 97L650 127Z" fill="#ecd5d5" stroke="#ecd5d5"></path><path d="M866.3 423L836.3 342L776.7 440Z" fill="#e5c8c8" stroke="#e5c8c8"></path><path d="M776.7 440L836.3 342L724.7 362Z" fill="#f2e3e3" stroke="#f2e3e3"></path><path d="M782.7 248L855.3 211L725.7 160Z" fill="#e5c8c8" stroke="#e5c8c8"></path><path d="M94.7 414L237.3 344L71.7 328Z" fill="#f9f1f1" stroke="#f9f1f1"></path><path d="M244.3 462L185.3 540L304 540Z" fill="#ecd5d5" stroke="#ecd5d5"></path><path d="M461.7 0L352 0L436.7 63Z" fill="#f2e3e3" stroke="#f2e3e3"></path><path d="M736.7 0L624 0L650 127Z" fill="#fcf8f8" stroke="#fcf8f8"></path><path d="M836.3 342L850.3 286L782.7 248Z" fill="#e5c8c8" stroke="#e5c8c8"></path><path d="M71.7 328L237.3 344L225.3 297Z" fill="#e5c8c8" stroke="#e5c8c8"></path><path d="M839.3 540L866.3 423L776.7 440Z" fill="#f9f1f1" stroke="#f9f1f1"></path><path d="M836.3 342L960 301L850.3 286Z" fill="#fcf8f8" stroke="#fcf8f8"></path><path d="M850.3 286L855.3 211L782.7 248Z" fill="#e8cece" stroke="#e8cece"></path><path d="M739.7 115L736.7 0L650 127Z" fill="#e8cece" stroke="#e8cece"></path><path d="M960 301L855.3 211L850.3 286Z" fill="#ffffff" stroke="#ffffff"></path><path d="M71.7 141L92.7 265L175.3 207Z" fill="#e1c1c1" stroke="#e1c1c1"></path><path d="M175.3 207L92.7 265L225.3 297Z" fill="#f9f1f1" stroke="#f9f1f1"></path><path d="M94.7 414L130.7 540L185.3 540Z" fill="#ecd5d5" stroke="#ecd5d5"></path><path d="M92.7 265L71.7 328L225.3 297Z" fill="#f6eaea" stroke="#f6eaea"></path><path d="M762.7 540L839.3 540L776.7 440Z" fill="#f2e3e3" stroke="#f2e3e3"></path><path d="M352 0L248.3 0L311 105Z" fill="#f9f1f1" stroke="#f9f1f1"></path><path d="M247.3 105L71.7 141L175.3 207Z" fill="#e8cece" stroke="#e8cece"></path><path d="M817.3 52L736.7 0L739.7 115Z" fill="#f2e3e3" stroke="#f2e3e3"></path><path d="M855.3 211L817.3 52L739.7 115Z" fill="#efdcdc" stroke="#efdcdc"></path><path d="M90.7 58L71.7 141L247.3 105Z" fill="#ecd5d5" stroke="#ecd5d5"></path><path d="M0 269L0 321L71.7 328Z" fill="#f2e3e3" stroke="#f2e3e3"></path><path d="M248.3 0L143.7 0L247.3 105Z" fill="#e1c1c1" stroke="#e1c1c1"></path><path d="M960 381L836.3 342L866.3 423Z" fill="#f2e3e3" stroke="#f2e3e3"></path><path d="M960 381L960 301L836.3 342Z" fill="#e1c1c1" stroke="#e1c1c1"></path><path d="M855.3 211L960 74L817.3 52Z" fill="#e5c8c8" stroke="#e5c8c8"></path><path d="M960 426L960 381L866.3 423Z" fill="#debaba" stroke="#debaba"></path><path d="M143.7 0L90.7 58L247.3 105Z" fill="#efdcdc" stroke="#efdcdc"></path><path d="M0 269L92.7 265L0 216Z" fill="#e5c8c8" stroke="#e5c8c8"></path><path d="M0 269L71.7 328L92.7 265Z" fill="#e5c8c8" stroke="#e5c8c8"></path><path d="M71.7 328L0 321L94.7 414Z" fill="#f6eaea" stroke="#f6eaea"></path><path d="M94.7 414L0 471L130.7 540Z" fill="#f6eaea" stroke="#f6eaea"></path><path d="M0 216L92.7 265L71.7 141Z" fill="#e8cece" stroke="#e8cece"></path><path d="M960 540L960 426L866.3 423Z" fill="#f6eaea" stroke="#f6eaea"></path><path d="M0 92L0 216L71.7 141Z" fill="#e1c1c1" stroke="#e1c1c1"></path><path d="M0 321L0 471L94.7 414Z" fill="#ecd5d5" stroke="#ecd5d5"></path><path d="M960 301L960 177L855.3 211Z" fill="#f2e3e3" stroke="#f2e3e3"></path><path d="M839.3 540L960 540L866.3 423Z" fill="#debaba" stroke="#debaba"></path><path d="M0 471L0 540L130.7 540Z" fill="#efdcdc" stroke="#efdcdc"></path><path d="M960 74L881.3 0L817.3 52Z" fill="#e5c8c8" stroke="#e5c8c8"></path><path d="M817.3 52L881.3 0L736.7 0Z" fill="#f2e3e3" stroke="#f2e3e3"></path><path d="M0 0L0 92L90.7 58Z" fill="#f9f1f1" stroke="#f9f1f1"></path><path d="M90.7 58L0 92L71.7 141Z" fill="#e1c1c1" stroke="#e1c1c1"></path><path d="M960 177L960 74L855.3 211Z" fill="#debaba" stroke="#debaba"></path><path d="M960 74L960 0L881.3 0Z" fill="#f6eaea" stroke="#f6eaea"></path><path d="M143.7 0L0 0L90.7 58Z" fill="#e8cece" stroke="#e8cece"></path></g></svg>