<?xml version="1.0" encoding="UTF-8"?> <svg xmlns="http://www.w3.org/2000/svg" viewBox="0 0 223.66 52.61"><defs><style>.a{fill:#fcc801;}.b{fill:#004792;fill-rule:evenodd;}</style></defs><path class="a" d="M103.33,16.62c-1.12-3.66-3.62-5.41-7.5-5.36-2.57,0-4.6,1.3-6.71,2.83-.23-1.09.61-2.61-1.18-2.31-1.32.21-3.37-1.31-3.81,1.58C82.69,23,80.63,32.51,78.8,42.07c-.51,2.65-.5,2.65,2.27,2.65a5.21,5.21,0,0,1,.79,0c1.31.18,1.86-.35,2-1.69.27-2.14.81-4.24,1.14-6.37.16-1,.46-1.34,1.53-1a11.36,11.36,0,0,0,5.09.22C99.87,34.46,105.8,24.7,103.33,16.62Zm-9,13.16a6.62,6.62,0,0,1-6.94,1.52c-.54-.18-1.16-.31-1-1.18.67-3.05.81-6.22,2.21-9.11a10.64,10.64,0,0,1,2.77-3.76c1.48-1.21,3.12-2.1,5-1.08s2,2.78,2.08,4.44A13.36,13.36,0,0,1,94.29,29.78Z"></path><path class="a" d="M166.5,11.93a18.69,18.69,0,0,0-8.6-.39c-8.45,1.76-14.32,10.66-12.72,19.14.89,4.72,5,7.09,9.66,5.54a12,12,0,0,0,4.89-3.64c0,.59,0,.85,0,1.11-.15,2.45-.15,2.45,2.29,2.45h1.38c.74,0,1.09-.3,1.08-1-.05-7.31,1.85-14.35,3.13-21.48A1.25,1.25,0,0,0,166.5,11.93ZM161.77,17c-.69,3.26-.91,6.62-2.4,9.67a10.41,10.41,0,0,1-4.33,5,2.86,2.86,0,0,1-4.3-1.31c-2-4.72,2.06-14.47,9.48-14.62C161.1,15.72,162.06,15.66,161.77,17Z"></path><path class="a" d="M111.49,26c3-.09,6.05-.39,8.76-2a7.08,7.08,0,0,0,3.26-8.27c-.88-3-3.22-4.58-6.76-4.53a9.08,9.08,0,0,0-6.08,2.46,17.09,17.09,0,0,0-5.59,12.62c0,5.35,2.09,9,5.83,10a12.64,12.64,0,0,0,9.18-1.12c2.06-1,.72-2.74.41-4-.35-1.41-1.35-.1-2,.06-.89.2-1.73.65-2.63.79-3.35.55-5.53-1-5.9-4.14C109.79,26.69,110,26.08,111.49,26Zm-.13-6.28a6.8,6.8,0,0,1,4.35-4c1.3-.34,2.6-.13,3.17,1.23a2.5,2.5,0,0,1-1.24,3.33,10.16,10.16,0,0,1-4.44,1.17C110.49,21.63,110.45,21.57,111.36,19.75Z"></path><path class="a" d="M138.68,11.24a19.28,19.28,0,0,1,2.13.23c3.07.67,3.6,2,1.88,4.67-.43.67-.89.59-1.49.31a6.44,6.44,0,0,0-3.62-.74,2.94,2.94,0,0,0-2.77,2.13,2.72,2.72,0,0,0,1.28,3,38.44,38.44,0,0,1,3.51,2.51A7.31,7.31,0,0,1,138.65,35c-3.54,2.29-7.35,2.2-11.11.54-2.19-1-.55-2.41-.28-3.64.32-1.51,1.26-.9,2.1-.52a8.46,8.46,0,0,0,3.81.82,3.2,3.2,0,0,0,3.26-2.07,3.06,3.06,0,0,0-1.31-3.77c-.54-.37-1.11-.7-1.66-1.05-3.28-2.07-4.59-4.73-3.87-7.84a8.05,8.05,0,0,1,7.1-6.14C137.27,11.28,137.87,11.28,138.68,11.24Z"></path><path class="a" d="M180,45.56c-3-1.6-6.07-3.18-9.08-4.82-1-.55-.54-1.28,0-2s.82-.94,1.56-.28c2.56,2.27,5.16,4.5,7.75,6.74Z"></path><path class="a" d="M182.33,48.9a9,9,0,0,1-4.13-.74c-3.11-.83-6.19-1.77-9.28-2.67-.71-.21-1.51-.43-1.2-1.42s1.1-.57,1.74-.32Z"></path><path class="a" d="M213.25,5.28c3.12,2.17,6.22,4.36,9.37,6.49a1.79,1.79,0,0,1,.65,2.77c-7.74,13.92-18.06,25.29-32.34,32.76-1.14.59-2.07.78-3.17-.18-4-3.51-8.18-6.91-12.25-10.39-1.58-1.34-1.52-1.81.19-2.83,11.22-6.68,20-15.93,27.4-26.49a39.62,39.62,0,0,0,3-4.46c.86-1.68,1.8-1.82,3.15-.67C210.57,3.26,212,4.18,213.25,5.28Z"></path><path class="a" d="M200.62,6.16a95.24,95.24,0,0,1-8.33,10.54c-2.45,2.65-5,5.18-7.56,7.75l-2,1.41c-.36-.6,0-1,.21-1.35A95.92,95.92,0,0,0,192.23,3.1c.48-1.61,1.25-1.87,2.7-1.3,1.88.74,3.82,1.35,5.73,2C201.64,4.61,201.18,5.36,200.62,6.16Z"></path><path class="a" d="M177.06,29c1-3.09,1.83-5.76,2.67-8.44a86,86,0,0,0,3.21-15.71c.2-1.71.94-2,2.42-1.8,3.82.65,3.82.63,2.6,4.39a81.42,81.42,0,0,1-8.46,18.79c-.49.78-1.07,1.51-1.62,2.24A4.84,4.84,0,0,1,177.06,29Z"></path><path class="b" d="M16.27,7.1a3.21,3.21,0,0,0,3.33,3.34,1.72,1.72,0,0,0,.47,0,3.16,3.16,0,0,0,2.75-3.81A2.76,2.76,0,0,0,20.24,4c-.21,0-.47,0-.68,0A3.19,3.19,0,0,0,16.27,7.1ZM61.48,41.87A14.84,14.84,0,0,0,63.8,39a14,14,0,0,1-1.6,7.78,6.63,6.63,0,0,1-.72,1.09c-2.54,3.38-8,4.74-12.76,4.69a24.1,24.1,0,0,1-7.1-1,13.86,13.86,0,0,1-2.45-1.1C33.63,48,34.1,39.13,34.1,39.13s3.12,7.14,14,7.77a16.87,16.87,0,0,0,13.4-5Zm0-11.66a4.63,4.63,0,0,0,.88-.08c1.15-.17,4.69-1.61,4.4-7.06s-3-6.8-5.28-6.84h-.13a4.15,4.15,0,0,0-2.2.67c-1.43.89-3,2.87-2.91,6.51,0,5,3,6.51,4.86,6.8Zm0-18.55c7.48.21,10,6.85,10.35,9.38.25,1.82.29,7.65-3.42,11.11a9.75,9.75,0,0,1-6.93,2.58h-.21a10.1,10.1,0,0,1-7.4-3.21c-3.25-3.55-3-8.75-3-8.75a11.82,11.82,0,0,1,1.69-5.95,9.59,9.59,0,0,1,8.71-5.16ZM61.48,0a3.77,3.77,0,0,0,.67,0,10.26,10.26,0,0,1,9.3,5.37V9s-2.16-4.52-9.38-4.9h-.59C54.72,4,52.1,8.66,52.1,8.66v-3c1-2,3.17-5.28,9.38-5.58ZM5.07,12.47V7.14S1.65,6.68,0,10.86V28.27a9,9,0,0,0,1.35,3.5,6.46,6.46,0,0,0,5.54,2.88c5.49.17,6.42-2.54,5.91-5.54,0,0-6.08,3.38-7.56-1.69V17h5.49s2.5-.21,2-4.56Zm11.83-.13v16.6s.47,5.37,4.44,5.58,5.24-1.65,5.32-4.48c0,0-2,.72-3.25-.21a2.8,2.8,0,0,1-1.27-2.24V15.17s-.85-3-5.24-2.83Zm30.51,5.91a.48.48,0,0,0,.67-.33c.13-.6.55-4.53-4.1-5.79-5.4-1.44-11.78.55-14,5.11a17.48,17.48,0,0,0-1.69,6.17c-.21,4.18,1.39,8.74,5.83,11,0,0,5.2,2.53,10.31.76,0,0,3.8-1.57,3.84-4.4s.43-6.88-2-6.93a30.24,30.24,0,0,0-3.26,0,36.9,36.9,0,0,1,.38,5.28c-.21.64-1.56,2.33-5.62,1.06s-4.56-6.34-3.59-9.59,5.07-4.56,7.65-4.35a16,16,0,0,1,5.58,2Z"></path></svg> 