<?xml version="1.0" encoding="UTF-8"?> <svg xmlns="http://www.w3.org/2000/svg" viewBox="0 0 291.84 116.09"><defs><style>.cls-1{fill:#ed1c24;}.cls-2{fill:#62a443;}.cls-3{fill:#55602a;}.cls-4{fill:#ed1c00;}.cls-5{fill:#ec1c24;fill-rule:evenodd;}</style></defs><g id="Layer_2" data-name="Layer 2"><g id="Layer_1-2" data-name="Layer 1"><g id="Layer_2-2" data-name="Layer 2"><g id="Option_4" data-name="Option 4"><g id="logos"><path class="cls-1" d="M208.08,39.64V53.22c0,.55,0,.55.82.55h24.54c2.17,0,2.17,0,2.17-2.09V41.27a1.09,1.09,0,0,1,.54-1.27L239,39h.72V62.19a6.42,6.42,0,0,1-6.33,6.52h-23.1a6.88,6.88,0,0,1-7-6.79V39a3.22,3.22,0,0,0,0-1.63,23.87,23.87,0,0,0,0-5.07,8.87,8.87,0,0,0,0-1.63v-24A6.52,6.52,0,0,1,208.35.07a6.1,6.1,0,0,1,1.81,0h23A6.43,6.43,0,0,1,240,6.12c0,.19,0,.37,0,.56v9.05c0,.73,0,.73-.82.46l-3-1.36c-.54,0-.54-.64-.54-1.18V6.86c0-.82,0-1-1-1H209c-.73,0-1.27,0-1.27,1V36.2A15.37,15.37,0,0,1,208.08,39.64Zm13.86,23.81c2.89,0,2.89,0,2.89-2.89s0-2.9-3-2.9-2.81,0-2.81,2.81S219,63.45,221.94,63.45ZM232,60.56c0-1.63,0-1.63-1.54-1.63s-1.63,0-1.63,1.35,0,1.91,1.18,1.91S232,62.19,232,60.56Zm-20,0c0,1.63,0,1.63,1.81,1.63s1.35,0,1.35-1.81,0-1.54-1.17-1.45S212,58.56,212,60.56Z"></path><path class="cls-2" d="M208.08,39.64V36.29a14.69,14.69,0,0,0,6.16-2.45,10.26,10.26,0,0,0,2.9-2,12.15,12.15,0,0,0,3.8-3,46.08,46.08,0,0,0,9.69-13.49c0-.63.63-.72,1.27-.45l21.28,10.23c.81,0,0,.72,0,1.18a33.82,33.82,0,0,1-22.28,13A74.31,74.31,0,0,1,208.08,39.64Z"></path><path class="cls-1" d="M154.66,97.14V88.08a1.54,1.54,0,0,1,1-1.63,18.19,18.19,0,0,1,14.22,0,2.12,2.12,0,0,0,2,0,13.44,13.44,0,0,1,13.95,2.45,7.54,7.54,0,0,1,2,5v13.49c0,.64,0,.73-.82.73h-4.34c-.91,0-1.09,0-1.09-1.09V96.42a2.78,2.78,0,0,1,0-.91c0-4.89-4.44-5.7-7.34-4.44a.66.66,0,0,0,0,.64,85.55,85.55,0,0,1,0,10.86v4.62c0,.64,0,.82-.81.82h-4.35c-.81,0-1,0-1-1V95.6a5.66,5.66,0,0,0,0-2.17,5.07,5.07,0,0,0-6.56-2.91l-.23.1c-.55,0,0,.82,0,1.27v14.76c0,1,0,1.27-1.27,1.18h-4.35c-.81,0-1,0-1-.91V97.14Z"></path><path class="cls-1" d="M204.28,100.76V86.64c0-.82,0-1.09,1-1.27a42.93,42.93,0,0,1,9.6-.64,11.28,11.28,0,0,1,8.61,3.63,12.24,12.24,0,0,1,1.63,13.13,10.6,10.6,0,0,1-11.6,6.15,8.72,8.72,0,0,1-2.26-.45c-.81,0-.9,0-.9.64v7.33c0,.82,0,1-1,.91h-4.17c-.81,0-.9,0-.9-1Zm6.07-4.89h0v6a5.73,5.73,0,0,0,9.23-4.44A6.16,6.16,0,0,0,215.09,90a6,6,0,0,0-2.12-.14h-1.63c-.72,0-1,0-1,1.08Z"></path><path class="cls-1" d="M291.84,96.78v9c0,.91,0,1.18-1.17,1.09h-3.44c-.73,0-1.09,0-1.09-.91s0-1-.73-.45a9.59,9.59,0,0,1-13.42-2,9.14,9.14,0,0,1-1-1.62,12,12,0,0,1,5.24-16.21l.37-.18a17.21,17.21,0,0,1,10.23-.73,27.58,27.58,0,0,1,3.9.91c.9,0,1.08.63,1.08,1.45v9.6Zm-6.24-1.36V90.26a7.55,7.55,0,0,0-6.52.81,7.33,7.33,0,0,0-2,8.24,5,5,0,0,0,5.26,3.35,3.62,3.62,0,0,0,3.64-3.6c0-.13,0-.25,0-.38Z"></path><path class="cls-1" d="M241.77,98.23h-6.43c-.91,0-1,0-.82,1.08a5.27,5.27,0,0,0,5.53,3.63,23,23,0,0,0,7.42-.91c.64,0,1,0,.91.63a7.92,7.92,0,0,0,0,1.54c0,1.45,0,1.9-1.63,2.36a18.16,18.16,0,0,1-10.6.45A9.05,9.05,0,0,1,228.91,99a11.52,11.52,0,0,1,4.35-12.5,10.33,10.33,0,0,1,16.3,7.34v3.62c0,1.18,0,.91-1,.82Zm-2.63-4.44h3.8c.46,0,.73,0,.64-.63A4.43,4.43,0,0,0,239,89.81a3.9,3.9,0,0,0-4.35,3.35c0,.54,0,.63.64.63Z"></path><path class="cls-1" d="M267.12,88.27v2.08c0,.45-1.36,0-2.08-.45a27.71,27.71,0,0,0-5.52-.55A2.3,2.3,0,0,0,257.07,91a2.36,2.36,0,0,0,1.81,2.36l5.34,1.45a5.6,5.6,0,0,1,4.26,5.52,6.35,6.35,0,0,1-4.16,6.43,15.77,15.77,0,0,1-11,0c-1.09,0-1.54-.91-1.36-2s-.45-2.09,0-2.54,1.63,0,2.54.45a17.18,17.18,0,0,0,6.15,0,2,2,0,0,0,2.18-1.72c.09-.9,0-1.72-1.63-2.26s-3.81-.91-5.62-1.63a5.52,5.52,0,0,1-4-5,6.41,6.41,0,0,1,3.62-6.61,13.71,13.71,0,0,1,8.06-.64l2.9.64c1,0,1.36.63,1.17,1.63Z"></path><path class="cls-1" d="M196.22,92.7h4.89c.72,0,.9,0,.9.91v4.16c0,.55,0,.73-.81.73H190.88c-.73,0-1,0-.91-.82V93.43c0-.55,0-.73.73-.73Z"></path><path class="cls-3" d="M217.14,31.85a10.26,10.26,0,0,1-2.9,2,14.69,14.69,0,0,1-6.16,2.45V28.05c.91-.82.91-1.36,1.63-2.08s.64,0,1,0a21.79,21.79,0,0,0,2.9,3.53A10.26,10.26,0,0,0,217.14,31.85Z"></path><path class="cls-3" d="M203.46,32.3a23.87,23.87,0,0,1,0,5.07,26.44,26.44,0,0,1-4,0h-3.35l-3.71-.72v-.36A18.56,18.56,0,0,0,203.46,32.3Z"></path><path class="cls-2" d="M196.13,37.47h3.8a29.52,29.52,0,0,0,4,0,3.45,3.45,0,0,1,0,1.63l-6.43-1.18Z"></path></g></g></g><rect class="cls-4" x="129.54" y="0.48" width="1.59" height="108.1"></rect><path class="cls-5" d="M104.27,54.42A52.2,52.2,0,1,1,73.67,7.07C72.87,7,72.05,7,71.23,7,45.36,7,24.4,27.32,24.4,52.42,24.08,69.59,36,84.91,53.56,84.91c15.84,0,28.78-12.44,28.78-27.9,0-13.7-10.29-25.07-23.75-27.37.32-9.55,6.46-17.84,15.52-22.37A52,52,0,0,1,104.27,54.42Z"></path></g></g></svg> 